<?xml version="1.0" encoding="utf-8" standalone="no"?>
<!DOCTYPE svg PUBLIC "-//W3C//DTD SVG 1.1//EN"
  "http://www.w3.org/Graphics/SVG/1.1/DTD/svg11.dtd">
<svg xmlns:xlink="http://www.w3.org/1999/xlink" width="720pt" height="453.6pt" viewBox="0 0 720 453.6" xmlns="http://www.w3.org/2000/svg" version="1.1">
 <metadata>
  <rdf:RDF xmlns:dc="http://purl.org/dc/elements/1.1/" xmlns:cc="http://creativecommons.org/ns#" xmlns:rdf="http://www.w3.org/1999/02/22-rdf-syntax-ns#">
   <cc:Work>
    <dc:type rdf:resource="http://purl.org/dc/dcmitype/StillImage"/>
    <dc:date>2026-09-28T21:15:47.699228</dc:date>
    <dc:format>image/svg+xml</dc:format>
    <dc:creator>
     <cc:Agent>
      <dc:title>Pritish Yuvraj | BFCL V1 routing pilot</dc:title>
     </cc:Agent>
    </dc:creator>
   </cc:Work>
  </rdf:RDF>
 </metadata>
 <defs>
  <style type="text/css">*{stroke-linejoin: round; stroke-linecap: butt}</style>
 </defs>
 <g id="figure_1">
  <g id="patch_1">
   <path d="M 0 453.6 
L 720 453.6 
L 720 0 
L 0 0 
z
" style="fill: #fbfaf6"/>
  </g>
  <g id="axes_1">
   <g id="patch_2">
    <path d="M 72 358.344 
L 669.6 358.344 
L 669.6 90.72 
L 72 90.72 
z
" style="fill: #fbfaf6"/>
   </g>
   <g id="matplotlib.axis_1">
    <g id="xtick_1">
     <g id="line2d_1">
      <path d="M 72 358.344 
L 72 90.72 
" clip-path="url(#pd0d5271bd9)" style="fill: none; stroke: #e5e8e3; stroke-width: 0.8; stroke-linecap: square"/>
     </g>
     <g id="line2d_2"/>
     <g id="text_1">
      <text style="font-size: 10px; font-family: 'DejaVu Sans'; text-anchor: middle; fill: #182c35" x="72" y="369.442437" transform="rotate(-0 72 369.442437)">0</text>
     </g>
    </g>
    <g id="xtick_2">
     <g id="line2d_3">
      <path d="M 138.4 358.344 
L 138.4 90.72 
" clip-path="url(#pd0d5271bd9)" style="fill: none; stroke: #e5e8e3; stroke-width: 0.8; stroke-linecap: square"/>
     </g>
     <g id="line2d_4"/>
     <g id="text_2">
      <text style="font-size: 10px; font-family: 'DejaVu Sans'; text-anchor: middle; fill: #182c35" x="138.4" y="369.442437" transform="rotate(-0 138.4 369.442437)">10</text>
     </g>
    </g>
    <g id="xtick_3">
     <g id="line2d_5">
      <path d="M 204.8 358.344 
L 204.8 90.72 
" clip-path="url(#pd0d5271bd9)" style="fill: none; stroke: #e5e8e3; stroke-width: 0.8; stroke-linecap: square"/>
     </g>
     <g id="line2d_6"/>
     <g id="text_3">
      <text style="font-size: 10px; font-family: 'DejaVu Sans'; text-anchor: middle; fill: #182c35" x="204.8" y="369.442437" transform="rotate(-0 204.8 369.442437)">20</text>
     </g>
    </g>
    <g id="xtick_4">
     <g id="line2d_7">
      <path d="M 271.2 358.344 
L 271.2 90.72 
" clip-path="url(#pd0d5271bd9)" style="fill: none; stroke: #e5e8e3; stroke-width: 0.8; stroke-linecap: square"/>
     </g>
     <g id="line2d_8"/>
     <g id="text_4">
      <text style="font-size: 10px; font-family: 'DejaVu Sans'; text-anchor: middle; fill: #182c35" x="271.2" y="369.442437" transform="rotate(-0 271.2 369.442437)">30</text>
     </g>
    </g>
    <g id="xtick_5">
     <g id="line2d_9">
      <path d="M 337.6 358.344 
L 337.6 90.72 
" clip-path="url(#pd0d5271bd9)" style="fill: none; stroke: #e5e8e3; stroke-width: 0.8; stroke-linecap: square"/>
     </g>
     <g id="line2d_10"/>
     <g id="text_5">
      <text style="font-size: 10px; font-family: 'DejaVu Sans'; text-anchor: middle; fill: #182c35" x="337.6" y="369.442437" transform="rotate(-0 337.6 369.442437)">40</text>
     </g>
    </g>
    <g id="xtick_6">
     <g id="line2d_11">
      <path d="M 404 358.344 
L 404 90.72 
" clip-path="url(#pd0d5271bd9)" style="fill: none; stroke: #e5e8e3; stroke-width: 0.8; stroke-linecap: square"/>
     </g>
     <g id="line2d_12"/>
     <g id="text_6">
      <text style="font-size: 10px; font-family: 'DejaVu Sans'; text-anchor: middle; fill: #182c35" x="404" y="369.442437" transform="rotate(-0 404 369.442437)">50</text>
     </g>
    </g>
    <g id="xtick_7">
     <g id="line2d_13">
      <path d="M 470.4 358.344 
L 470.4 90.72 
" clip-path="url(#pd0d5271bd9)" style="fill: none; stroke: #e5e8e3; stroke-width: 0.8; stroke-linecap: square"/>
     </g>
     <g id="line2d_14"/>
     <g id="text_7">
      <text style="font-size: 10px; font-family: 'DejaVu Sans'; text-anchor: middle; fill: #182c35" x="470.4" y="369.442437" transform="rotate(-0 470.4 369.442437)">60</text>
     </g>
    </g>
    <g id="xtick_8">
     <g id="line2d_15">
      <path d="M 536.8 358.344 
L 536.8 90.72 
" clip-path="url(#pd0d5271bd9)" style="fill: none; stroke: #e5e8e3; stroke-width: 0.8; stroke-linecap: square"/>
     </g>
     <g id="line2d_16"/>
     <g id="text_8">
      <text style="font-size: 10px; font-family: 'DejaVu Sans'; text-anchor: middle; fill: #182c35" x="536.8" y="369.442437" transform="rotate(-0 536.8 369.442437)">70</text>
     </g>
    </g>
    <g id="xtick_9">
     <g id="line2d_17">
      <path d="M 603.2 358.344 
L 603.2 90.72 
" clip-path="url(#pd0d5271bd9)" style="fill: none; stroke: #e5e8e3; stroke-width: 0.8; stroke-linecap: square"/>
     </g>
     <g id="line2d_18"/>
     <g id="text_9">
      <text style="font-size: 10px; font-family: 'DejaVu Sans'; text-anchor: middle; fill: #182c35" x="603.2" y="369.442437" transform="rotate(-0 603.2 369.442437)">80</text>
     </g>
    </g>
    <g id="xtick_10">
     <g id="line2d_19">
      <path d="M 669.6 358.344 
L 669.6 90.72 
" clip-path="url(#pd0d5271bd9)" style="fill: none; stroke: #e5e8e3; stroke-width: 0.8; stroke-linecap: square"/>
     </g>
     <g id="line2d_20"/>
     <g id="text_10">
      <text style="font-size: 10px; font-family: 'DejaVu Sans'; text-anchor: middle; fill: #182c35" x="669.6" y="369.442437" transform="rotate(-0 669.6 369.442437)">90</text>
     </g>
    </g>
    <g id="text_11">
     <text style="font-size: 11px; font-family: 'DejaVu Sans'; text-anchor: middle; fill: #182c35" x="370.8" y="391.880406" transform="rotate(-0 370.8 391.880406)">Observed median wall latency (ms) · lower is faster</text>
    </g>
   </g>
   <g id="matplotlib.axis_2">
    <g id="ytick_1">
     <g id="line2d_21">
      <path d="M 72 358.344 
L 669.6 358.344 
" clip-path="url(#pd0d5271bd9)" style="fill: none; stroke: #e5e8e3; stroke-width: 0.8; stroke-linecap: square"/>
     </g>
     <g id="line2d_22"/>
     <g id="text_12">
      <text style="font-size: 10px; font-family: 'DejaVu Sans'; text-anchor: end; fill: #182c35" x="68.5" y="362.143219" transform="rotate(-0 68.5 362.143219)">0</text>
     </g>
    </g>
    <g id="ytick_2">
     <g id="line2d_23">
      <path d="M 72 309.685091 
L 669.6 309.685091 
" clip-path="url(#pd0d5271bd9)" style="fill: none; stroke: #e5e8e3; stroke-width: 0.8; stroke-linecap: square"/>
     </g>
     <g id="line2d_24"/>
     <g id="text_13">
      <text style="font-size: 10px; font-family: 'DejaVu Sans'; text-anchor: end; fill: #182c35" x="68.5" y="313.48431" transform="rotate(-0 68.5 313.48431)">20</text>
     </g>
    </g>
    <g id="ytick_3">
     <g id="line2d_25">
      <path d="M 72 261.026182 
L 669.6 261.026182 
" clip-path="url(#pd0d5271bd9)" style="fill: none; stroke: #e5e8e3; stroke-width: 0.8; stroke-linecap: square"/>
     </g>
     <g id="line2d_26"/>
     <g id="text_14">
      <text style="font-size: 10px; font-family: 'DejaVu Sans'; text-anchor: end; fill: #182c35" x="68.5" y="264.825401" transform="rotate(-0 68.5 264.825401)">40</text>
     </g>
    </g>
    <g id="ytick_4">
     <g id="line2d_27">
      <path d="M 72 212.367273 
L 669.6 212.367273 
" clip-path="url(#pd0d5271bd9)" style="fill: none; stroke: #e5e8e3; stroke-width: 0.8; stroke-linecap: square"/>
     </g>
     <g id="line2d_28"/>
     <g id="text_15">
      <text style="font-size: 10px; font-family: 'DejaVu Sans'; text-anchor: end; fill: #182c35" x="68.5" y="216.166491" transform="rotate(-0 68.5 216.166491)">60</text>
     </g>
    </g>
    <g id="ytick_5">
     <g id="line2d_29">
      <path d="M 72 163.708364 
L 669.6 163.708364 
" clip-path="url(#pd0d5271bd9)" style="fill: none; stroke: #e5e8e3; stroke-width: 0.8; stroke-linecap: square"/>
     </g>
     <g id="line2d_30"/>
     <g id="text_16">
      <text style="font-size: 10px; font-family: 'DejaVu Sans'; text-anchor: end; fill: #182c35" x="68.5" y="167.507582" transform="rotate(-0 68.5 167.507582)">80</text>
     </g>
    </g>
    <g id="ytick_6">
     <g id="line2d_31">
      <path d="M 72 115.049455 
L 669.6 115.049455 
" clip-path="url(#pd0d5271bd9)" style="fill: none; stroke: #e5e8e3; stroke-width: 0.8; stroke-linecap: square"/>
     </g>
     <g id="line2d_32"/>
     <g id="text_17">
      <text style="font-size: 10px; font-family: 'DejaVu Sans'; text-anchor: end; fill: #182c35" x="68.5" y="118.848673" transform="rotate(-0 68.5 118.848673)">100</text>
     </g>
    </g>
    <g id="text_18">
     <text style="font-size: 11px; font-family: 'DejaVu Sans'; text-anchor: middle; fill: #182c35" x="35.124844" y="224.532" transform="rotate(-90 35.124844 224.532)">Routing accuracy (%) · all 250 cases</text>
    </g>
   </g>
   <g id="PathCollection_1">
    <defs>
     <path id="m9529754fdf" d="M 0 4.873397 
C 1.29244 4.873397 2.532119 4.359905 3.446012 3.446012 
C 4.359905 2.532119 4.873397 1.29244 4.873397 0 
C 4.873397 -1.29244 4.359905 -2.532119 3.446012 -3.446012 
C 2.532119 -4.359905 1.29244 -4.873397 0 -4.873397 
C -1.29244 -4.873397 -2.532119 -4.359905 -3.446012 -3.446012 
C -4.359905 -2.532119 -4.873397 -1.29244 -4.873397 0 
C -4.873397 1.29244 -4.359905 2.532119 -3.446012 3.446012 
C -2.532119 4.359905 -1.29244 4.873397 0 4.873397 
z
" style="stroke: #fbfaf6; stroke-width: 1.4"/>
    </defs>
    <g clip-path="url(#pd0d5271bd9)">
     <use xlink:href="#m9529754fdf" x="184.9464" y="124.781236" style="fill: #147d73; stroke: #fbfaf6; stroke-width: 1.4"/>
    </g>
   </g>
   <g id="patch_3">
    <path d="M 214.798744 132.445253 
Q 200.840077 128.861633 186.881409 125.278013 
" style="fill: none; stroke: #147d73; stroke-width: 0.7; stroke-linecap: round"/>
   </g>
   <g id="text_19">
    <text style="font-size: 9px; font-family: 'DejaVu Sans'; text-anchor: start; fill: #182c35" x="193.9464" y="141.781236" transform="rotate(-0 193.9464 141.781236)">Laya typed-decisions</text>
   </g>
   <g id="PathCollection_2">
    <defs>
     <path id="m203bc111fa" d="M 0 4.873397 
C 1.29244 4.873397 2.532119 4.359905 3.446012 3.446012 
C 4.359905 2.532119 4.873397 1.29244 4.873397 0 
C 4.873397 -1.29244 4.359905 -2.532119 3.446012 -3.446012 
C 2.532119 -4.359905 1.29244 -4.873397 0 -4.873397 
C -1.29244 -4.873397 -2.532119 -4.359905 -3.446012 -3.446012 
C -4.359905 -2.532119 -4.873397 -1.29244 -4.873397 0 
C -4.873397 1.29244 -4.359905 2.532119 -3.446012 3.446012 
C -2.532119 4.359905 -1.29244 4.873397 0 4.873397 
z
" style="stroke: #fbfaf6; stroke-width: 1.4"/>
    </defs>
    <g clip-path="url(#pd0d5271bd9)">
     <use xlink:href="#m203bc111fa" x="561.9988" y="123.808058" style="fill: #446788; stroke: #fbfaf6; stroke-width: 1.4"/>
    </g>
   </g>
   <g id="patch_4">
    <path d="M 580.08352 137.75126 
Q 571.832587 131.389845 563.581655 125.028429 
" style="fill: none; stroke: #446788; stroke-width: 0.7; stroke-linecap: round"/>
   </g>
   <g id="text_20">
    <text style="font-size: 9px; font-family: 'DejaVu Sans'; text-anchor: start; fill: #182c35" x="569.9988" y="147.808058" transform="rotate(-0 569.9988 147.808058)">Kev-0.8B</text>
   </g>
   <g id="PathCollection_3">
    <defs>
     <path id="m3812af049a" d="M 0 4.873397 
C 1.29244 4.873397 2.532119 4.359905 3.446012 3.446012 
C 4.359905 2.532119 4.873397 1.29244 4.873397 0 
C 4.873397 -1.29244 4.359905 -2.532119 3.446012 -3.446012 
C 2.532119 -4.359905 1.29244 -4.873397 0 -4.873397 
C -1.29244 -4.873397 -2.532119 -4.359905 -3.446012 -3.446012 
C -4.359905 -2.532119 -4.873397 -1.29244 -4.873397 0 
C -4.873397 1.29244 -4.359905 2.532119 -3.446012 3.446012 
C -2.532119 4.359905 -1.29244 4.873397 0 4.873397 
z
" style="stroke: #fbfaf6; stroke-width: 1.4"/>
    </defs>
    <g clip-path="url(#pd0d5271bd9)">
     <use xlink:href="#m3812af049a" x="472.1264" y="116.995811" style="fill: #263e50; stroke: #fbfaf6; stroke-width: 1.4"/>
    </g>
   </g>
   <g id="patch_5">
    <path d="M 413.91962 104.294991 
Q 442.044252 110.431834 470.168884 116.568678 
" style="fill: none; stroke: #263e50; stroke-width: 0.7; stroke-linecap: round"/>
   </g>
   <g id="text_21">
    <text style="font-size: 9px; font-family: 'DejaVu Sans'; text-anchor: start; fill: #182c35" x="339.1264" y="99.995811" transform="rotate(-0 339.1264 99.995811)">Bespoke Nimble 9B</text>
   </g>
   <g id="PathCollection_4">
    <defs>
     <path id="m31bfa11597" d="M 0 4.873397 
C 1.29244 4.873397 2.532119 4.359905 3.446012 3.446012 
C 4.359905 2.532119 4.873397 1.29244 4.873397 0 
C 4.873397 -1.29244 4.359905 -2.532119 3.446012 -3.446012 
C 2.532119 -4.359905 1.29244 -4.873397 0 -4.873397 
C -1.29244 -4.873397 -2.532119 -4.359905 -3.446012 -3.446012 
C -4.359905 -2.532119 -4.873397 -1.29244 -4.873397 0 
C -4.873397 1.29244 -4.359905 2.532119 -3.446012 3.446012 
C -2.532119 4.359905 -1.29244 4.873397 0 4.873397 
z
" style="stroke: #fbfaf6; stroke-width: 1.4"/>
    </defs>
    <g clip-path="url(#pd0d5271bd9)">
     <use xlink:href="#m31bfa11597" x="444.1056" y="116.995811" style="fill: #bc663f; stroke: #fbfaf6; stroke-width: 1.4"/>
    </g>
   </g>
   <g id="patch_6">
    <path d="M 470.179991 123.661821 
Q 458.111991 120.576594 446.043992 117.491368 
" style="fill: none; stroke: #bc663f; stroke-width: 0.7; stroke-linecap: round"/>
   </g>
   <g id="text_22">
    <text style="font-size: 9px; font-family: 'DejaVu Sans'; text-anchor: start; fill: #182c35" x="452.1056" y="132.995811" transform="rotate(-0 452.1056 132.995811)">Qwen3.5-4B / SemIf</text>
   </g>
   <g id="PathCollection_5">
    <defs>
     <path id="m7e5a6d0d4d" d="M 0 4.873397 
C 1.29244 4.873397 2.532119 4.359905 3.446012 3.446012 
C 4.359905 2.532119 4.873397 1.29244 4.873397 0 
C 4.873397 -1.29244 4.359905 -2.532119 3.446012 -3.446012 
C 2.532119 -4.359905 1.29244 -4.873397 0 -4.873397 
C -1.29244 -4.873397 -2.532119 -4.359905 -3.446012 -3.446012 
C -4.359905 -2.532119 -4.873397 -1.29244 -4.873397 0 
C -4.873397 1.29244 -4.359905 2.532119 -3.446012 3.446012 
C -2.532119 4.359905 -1.29244 4.873397 0 4.873397 
z
" style="stroke: #fbfaf6; stroke-width: 1.4"/>
    </defs>
    <g clip-path="url(#pd0d5271bd9)">
     <use xlink:href="#m7e5a6d0d4d" x="326.478" y="125.754415" style="fill: #807047; stroke: #fbfaf6; stroke-width: 1.4"/>
    </g>
   </g>
   <g id="patch_7">
    <path d="M 346.865902 144.558585 
Q 337.407379 135.8348 327.948856 127.111014 
" style="fill: none; stroke: #807047; stroke-width: 0.7; stroke-linecap: round"/>
   </g>
   <g id="text_23">
    <text style="font-size: 9px; font-family: 'DejaVu Sans'; text-anchor: start; fill: #182c35" x="311.478" y="154.754415" transform="rotate(-0 311.478 154.754415)">Rizzo Flow 4B Q8_0</text>
   </g>
   <g id="PathCollection_6">
    <defs>
     <path id="mf89bf7f74f" d="M 0 4.873397 
C 1.29244 4.873397 2.532119 4.359905 3.446012 3.446012 
C 4.359905 2.532119 4.873397 1.29244 4.873397 0 
C 4.873397 -1.29244 4.359905 -2.532119 3.446012 -3.446012 
C 2.532119 -4.359905 1.29244 -4.873397 0 -4.873397 
C -1.29244 -4.873397 -2.532119 -4.359905 -3.446012 -3.446012 
C -4.359905 -2.532119 -4.873397 -1.29244 -4.873397 0 
C -4.873397 1.29244 -4.359905 2.532119 -3.446012 3.446012 
C -2.532119 4.359905 -1.29244 4.873397 0 4.873397 
z
" style="stroke: #fbfaf6; stroke-width: 1.4"/>
    </defs>
    <g clip-path="url(#pd0d5271bd9)">
     <use xlink:href="#mf89bf7f74f" x="158.5192" y="136.459375" style="fill: #8b628b; stroke: #fbfaf6; stroke-width: 1.4"/>
    </g>
   </g>
   <g id="patch_8">
    <path d="M 187.94838 145.059992 
Q 174.194765 141.040526 160.44115 137.02106 
" style="fill: none; stroke: #8b628b; stroke-width: 0.7; stroke-linecap: round"/>
   </g>
   <g id="text_24">
    <text style="font-size: 9px; font-family: 'DejaVu Sans'; text-anchor: start; fill: #182c35" x="168.5192" y="154.459375" transform="rotate(-0 168.5192 154.459375)">Von 1.3 · chains off</text>
   </g>
   <g id="PathCollection_7">
    <defs>
     <path id="m2e239fcbb1" d="M 0 4.873397 
C 1.29244 4.873397 2.532119 4.359905 3.446012 3.446012 
C 4.359905 2.532119 4.873397 1.29244 4.873397 0 
C 4.873397 -1.29244 4.359905 -2.532119 3.446012 -3.446012 
C 2.532119 -4.359905 1.29244 -4.873397 0 -4.873397 
C -1.29244 -4.873397 -2.532119 -4.359905 -3.446012 -3.446012 
C -4.359905 -2.532119 -4.873397 -1.29244 -4.873397 0 
C -4.873397 1.29244 -4.359905 2.532119 -3.446012 3.446012 
C -2.532119 4.359905 -1.29244 4.873397 0 4.873397 
z
" style="stroke: #fbfaf6; stroke-width: 1.4"/>
    </defs>
    <g clip-path="url(#pd0d5271bd9)">
     <use xlink:href="#m2e239fcbb1" x="254.0024" y="272.70432" style="fill: #77868a; stroke: #fbfaf6; stroke-width: 1.4"/>
    </g>
   </g>
   <g id="patch_9">
    <path d="M 285.058015 267.883264 
Q 270.517755 270.140486 255.977495 272.397707 
" style="fill: none; stroke: #77868a; stroke-width: 0.7; stroke-linecap: round"/>
   </g>
   <g id="text_25">
    <text style="font-size: 9px; font-family: 'DejaVu Sans'; text-anchor: start; fill: #182c35" x="264.0024" y="263.70432" transform="rotate(-0 264.0024 263.70432)">NanoJev · games checkpoint</text>
   </g>
  </g>
  <g id="text_26">
   <text style="font-weight: 700; font-size: 21px; font-family: 'DejaVu Sans'; text-anchor: start; fill: #182c35" x="43.2" y="27.216" transform="rotate(-0 43.2 27.216)">Accuracy and observed latency</text>
  </g>
  <g id="text_27">
   <text style="font-size: 11px; font-family: 'DejaVu Sans'; text-anchor: start; fill: #182c35" x="43.2" y="52.164" transform="rotate(-0 43.2 52.164)">NVIDIA H100 · different model sizes, precisions, and native runtimes</text>
  </g>
  <g id="text_28">
   <text style="font-size: 9px; font-family: 'DejaVu Sans'; text-anchor: start; fill: #182c35" x="43.2" y="415.044" transform="rotate(-0 43.2 415.044)">Exploratory measurements, not a controlled architecture ranking or an end-to-end speedup.</text>
  </g>
  <g id="text_29">
   <text style="font-size: 9px; font-family: 'DejaVu Sans'; text-anchor: start; fill: #59676b" x="43.2" y="435.456" transform="rotate(-0 43.2 435.456)">Each point uses the same 250 cases. First-call overhead remains in the saved timing samples.</text>
  </g>
 </g>
 <defs>
  <clipPath id="pd0d5271bd9">
   <rect x="72" y="90.72" width="597.6" height="267.624"/>
  </clipPath>
 </defs>
</svg>
